<svg width="17" height="17" viewBox="0 0 17 17" fill="none" xmlns="http://www.w3.org/2000/svg">
<path d="M10.6724 5.85964C10.6118 5.79852 10.5397 5.75 10.4602 5.7169C10.3807 5.68379 10.2955 5.66674 10.2094 5.66674C10.1233 5.66674 10.0381 5.68379 9.95863 5.7169C9.87916 5.75 9.80704 5.79852 9.74642 5.85964L8.25308 7.35949L6.75975 5.85964C6.63696 5.73684 6.47041 5.66786 6.29676 5.66786C6.1231 5.66786 5.95655 5.73684 5.83376 5.85964C5.71096 5.98243 5.64198 6.14898 5.64198 6.32263C5.64198 6.49629 5.71096 6.66284 5.83376 6.78563L7.33361 8.27896L5.83376 9.77229C5.77264 9.83292 5.72412 9.90504 5.69102 9.98451C5.65791 10.064 5.64086 10.1492 5.64086 10.2353C5.64086 10.3214 5.65791 10.4066 5.69102 10.4861C5.72412 10.5655 5.77264 10.6377 5.83376 10.6983C5.89438 10.7594 5.9665 10.8079 6.04597 10.841C6.12543 10.8741 6.21067 10.8912 6.29676 10.8912C6.38284 10.8912 6.46808 10.8741 6.54754 10.841C6.62701 10.8079 6.69913 10.7594 6.75975 10.6983L8.25308 9.19844L9.74642 10.6983C9.80704 10.7594 9.87916 10.8079 9.95863 10.841C10.0381 10.8741 10.1233 10.8912 10.2094 10.8912C10.2955 10.8912 10.3807 10.8741 10.4602 10.841C10.5397 10.8079 10.6118 10.7594 10.6724 10.6983C10.7335 10.6377 10.782 10.5655 10.8152 10.4861C10.8483 10.4066 10.8653 10.3214 10.8653 10.2353C10.8653 10.1492 10.8483 10.064 10.8152 9.98451C10.782 9.90504 10.7335 9.83292 10.6724 9.77229L9.17256 8.27896L10.6724 6.78563C10.7335 6.72501 10.782 6.65289 10.8152 6.57342C10.8483 6.49396 10.8653 6.40872 10.8653 6.32263C10.8653 6.23655 10.8483 6.15131 10.8152 6.07185C10.782 5.99238 10.7335 5.92026 10.6724 5.85964ZM12.8635 3.66855C12.262 3.04572 11.5424 2.54893 10.7468 2.20716C9.95118 1.8654 9.09548 1.6855 8.22962 1.67798C7.36375 1.67046 6.50505 1.83545 5.70364 2.16334C4.90222 2.49122 4.17412 2.97544 3.56184 3.58772C2.94956 4.2 2.46535 4.9281 2.13746 5.72951C1.80957 6.53093 1.64458 7.38963 1.6521 8.2555C1.65963 9.12136 1.83952 9.97706 2.18128 10.7727C2.52305 11.5683 3.01984 12.2878 3.64267 12.8894C4.24422 13.5122 4.96379 14.009 5.75939 14.3508C6.55499 14.6925 7.41069 14.8724 8.27655 14.8799C9.14242 14.8875 10.0011 14.7225 10.8025 14.3946C11.604 14.0667 12.332 13.5825 12.9443 12.9702C13.5566 12.3579 14.0408 11.6298 14.3687 10.8284C14.6966 10.027 14.8616 9.1683 14.8541 8.30243C14.8465 7.43656 14.6667 6.58087 14.3249 5.78527C13.9831 4.98967 13.4863 4.2701 12.8635 3.66855ZM11.944 11.9699C11.0911 12.8238 9.96848 13.3555 8.76746 13.4745C7.56644 13.5935 6.36132 13.2924 5.35741 12.6225C4.35349 11.9526 3.61291 10.9554 3.26182 9.80065C2.91073 8.64595 2.97087 7.40523 3.43198 6.28989C3.89309 5.17455 4.72665 4.25359 5.79065 3.68391C6.85464 3.11424 8.08324 2.9311 9.26712 3.16569C10.451 3.40028 11.5169 4.03809 12.2833 4.97046C13.0496 5.90283 13.469 7.07206 13.47 8.27896C13.4723 8.96452 13.3386 9.64373 13.0767 10.2773C12.8148 10.9108 12.4298 11.4861 11.944 11.9699Z" fill="#FC0E0E"/>
</svg>
