<svg width="31" height="31" viewBox="0 0 31 31" fill="none" xmlns="http://www.w3.org/2000/svg">
<path fill-rule="evenodd" clip-rule="evenodd" d="M15.7384 3.45215C17.1489 3.45215 24.5501 5.99306 25.5298 6.97283C26.3465 7.78951 26.3341 8.44932 26.2768 11.6115C26.2544 12.8788 26.2233 14.6055 26.2233 16.9958C26.2233 25.5635 16.4256 28.6285 16.0085 28.7542C15.9202 28.7816 15.8293 28.7941 15.7384 28.7941C15.6475 28.7941 15.5566 28.7816 15.4682 28.7542C15.0512 28.6285 5.25354 25.5635 5.25354 16.9958C5.25354 14.6093 5.22242 12.8825 5.20001 11.6152C5.18978 11.0499 5.18098 10.5644 5.17809 10.1438L5.17773 9.66907C5.18841 8.10961 5.33477 7.58534 5.94821 6.97283C6.92549 5.99306 14.3266 3.45215 15.7384 3.45215ZM15.7384 5.31955C14.6827 5.31955 8.02228 7.66501 7.25415 8.30616C7.02757 8.53398 7.01886 8.92987 7.06741 11.5803C7.08982 12.8576 7.12094 14.5931 7.12094 16.9958C7.12094 23.4707 14.2445 26.3453 15.7372 26.8744C17.2286 26.3428 24.3558 23.4521 24.3558 16.9958C24.3558 14.5906 24.387 12.8539 24.4106 11.5766C24.4579 8.92863 24.4492 8.53273 24.2089 8.29371C23.4558 7.66501 16.7941 5.31955 15.7384 5.31955ZM20.3714 12.5894C20.7362 12.9541 20.7362 13.5455 20.3714 13.9102L15.5187 18.7642C15.3792 18.9047 15.1992 18.9957 15.0059 19.0265L14.8588 19.0381C14.6111 19.0381 14.3733 18.9398 14.1978 18.7642L11.8424 16.4063C11.4788 16.0416 11.4788 15.449 11.8436 15.0855C12.2071 14.7207 12.7997 14.7207 13.1645 15.0855L14.8588 16.7823L19.0518 12.5894C19.4166 12.2246 20.0067 12.2246 20.3714 12.5894Z" fill="#61AD32" fill-opacity="0.2"/>
</svg>
