<svg width="20" height="26" viewBox="0 0 20 26" fill="none" xmlns="http://www.w3.org/2000/svg">
<path fill-rule="evenodd" clip-rule="evenodd" d="M19.7999 20.7414C19.7999 24.8614 14.1499 25.3376 9.90113 25.3376L9.59708 25.3374C6.89013 25.3308 -0.00012207 25.1599 -0.00012207 20.7164C-0.00012207 16.6805 5.42282 16.1411 9.63923 16.1207L10.2052 16.1204C12.9119 16.127 19.7999 16.2979 19.7999 20.7414ZM9.90113 17.9951C4.57488 17.9951 1.87488 18.9101 1.87488 20.7164C1.87488 22.5389 4.57488 23.4626 9.90113 23.4626C15.2261 23.4626 17.9249 22.5476 17.9249 20.7414C17.9249 18.9189 15.2261 17.9951 9.90113 17.9951ZM9.90113 0.499626C13.5611 0.499626 16.5374 3.47713 16.5374 7.13713C16.5374 10.7971 13.5611 13.7734 9.90113 13.7734H9.86113C6.20863 13.7621 3.24988 10.7834 3.26234 7.13338C3.26234 3.47713 6.23988 0.499626 9.90113 0.499626ZM9.90113 2.28463C7.22488 2.28463 5.04735 4.46088 5.04735 7.13713C5.03863 9.80463 7.19988 11.9796 9.86488 11.9896L9.90113 12.8821V11.9896C12.5761 11.9896 14.7524 9.81213 14.7524 7.13713C14.7524 4.46088 12.5761 2.28463 9.90113 2.28463Z" fill="#E08700"/>
</svg>
