<svg width="19" height="23" viewBox="0 0 19 23" fill="none" xmlns="http://www.w3.org/2000/svg">
<path d="M0.700401 9.2367C0.807601 9.1267 1.2123 8.6562 1.5893 8.2692C3.7996 5.8353 9.5656 1.8515 12.5835 0.6355C13.0418 0.4401 14.2006 0.0266 14.8197 0C15.4129 0 15.9784 0.136601 16.5181 0.413601C17.1908 0.800601 17.7304 1.4095 18.0261 2.1285C18.2165 2.6274 18.5121 4.1204 18.5121 4.1469C18.8078 5.7803 18.9705 8.4343 18.9705 11.3671C18.9705 14.1615 18.8078 16.7073 18.5657 18.3653C18.538 18.3919 18.2423 20.2472 17.9189 20.8827C17.3257 22.0437 16.1669 22.7646 14.9269 22.7646H14.8197C14.0121 22.7361 12.3137 22.0152 12.3137 21.9887C9.4584 20.7708 3.8255 16.9824 1.5616 14.465C1.5616 14.465 0.924001 13.8181 0.646801 13.414C0.214401 12.8335 0 12.1145 0 11.3956C0 10.5931 0.242101 9.8457 0.700401 9.2367Z" fill="white"/>
</svg>
