<svg width="14" height="14" viewBox="0 0 14 14" fill="none" xmlns="http://www.w3.org/2000/svg">
<g clip-path="url(#clip0_464_4349)">
<path d="M12.5884 6.76365V7.25451C12.5877 8.40506 12.2152 9.52457 11.5263 10.4461C10.8374 11.3676 9.86904 12.0417 8.76571 12.3679C7.66238 12.6942 6.48316 12.655 5.40391 12.2563C4.32466 11.8575 3.40322 11.1206 2.777 10.1554C2.15078 9.19023 1.85334 8.04846 1.92905 6.90041C2.00475 5.75235 2.44953 4.65953 3.19707 3.78491C3.9446 2.9103 4.95483 2.30076 6.07709 2.0472C7.19935 1.79364 8.37351 1.90965 9.42445 2.37792" stroke="#61AD32" stroke-width="1.60063" stroke-linecap="round" stroke-linejoin="round"/>
<path d="M12.5884 2.98633L7.25298 8.32711L5.65234 6.72647" stroke="#61AD32" stroke-width="1.60063" stroke-linecap="round" stroke-linejoin="round"/>
</g>
<defs>
<clipPath id="clip0_464_4349">
<rect width="12.8051" height="12.8051" fill="white" transform="translate(0.850586 0.851562)"/>
</clipPath>
</defs>
</svg>
