<svg width="14" height="14" viewBox="0 0 14 14" fill="none" xmlns="http://www.w3.org/2000/svg">
<path d="M11.7164 2.2912C11.9122 2.2912 12.1098 2.3578 12.2722 2.4942C12.6368 2.7996 12.6868 3.3404 12.3842 3.7018L6.2842 10.9784C6.1176 11.177 5.6376 11.7088 5.6376 11.7088C5.6376 11.7088 5.227 11.3024 4.9994 11.047L1.6788 7.8958C1.3382 7.5698 1.3282 7.027 1.6568 6.683C1.8272 6.5046 2.055 6.4146 2.2824 6.4146C2.494 6.4146 2.705 6.4924 2.8692 6.6494L5.5414 9.1816L11.0636 2.5946C11.2312 2.3944 11.4724 2.2912 11.7164 2.2912ZM11.7164 1.4912C11.2258 1.4912 10.7642 1.7062 10.4502 2.0808L5.4746 8.0162L3.4194 6.0688C3.1144 5.7768 2.7096 5.6146 2.2826 5.6146C1.8304 5.6146 1.3914 5.8024 1.0784 6.1304C0.446 6.7928 0.4674 7.844 1.1256 8.4738L4.425 11.6052C4.669 11.8754 5.0576 12.2604 5.0744 12.2772C5.2244 12.4256 5.4268 12.5086 5.6372 12.5086C5.6446 12.5086 5.652 12.5084 5.6596 12.5082C5.8782 12.5022 6.0846 12.4068 6.2308 12.2448C6.251 12.2226 6.7228 11.6996 6.8966 11.4922L12.9968 4.2154C13.2814 3.8758 13.4156 3.4452 13.3746 3.003C13.334 2.5634 13.1248 2.1648 12.7856 1.8806C12.4866 1.6296 12.1066 1.4912 11.7164 1.4912Z" fill="white"/>
<path d="M10.8982 4.1526C10.8532 4.1526 10.8082 4.1376 10.7708 4.1066C10.6856 4.036 10.674 3.9102 10.7444 3.8252L11.157 3.3276C11.2274 3.2426 11.3534 3.2306 11.4384 3.3012C11.5236 3.3718 11.5352 3.4976 11.4648 3.5826L11.0524 4.08C11.0128 4.128 10.9558 4.1526 10.8982 4.1526Z" fill="white"/>
<path d="M8.4584 6.9782C8.4112 6.9782 8.3636 6.9616 8.3256 6.9276C8.243 6.8544 8.2356 6.7278 8.309 6.6454L10.2758 4.4328C10.349 4.35 10.4756 4.3426 10.558 4.4162C10.6406 4.4894 10.648 4.616 10.5746 4.6984L8.6078 6.911C8.5684 6.9554 8.5134 6.9782 8.4584 6.9782Z" fill="white"/>
</svg>
